<svg xmlns="http://www.w3.org/2000/svg" xmlns:xlink="http://www.w3.org/1999/xlink" viewBox="0 0 76 113">
  <defs>
    <style>
      .cls-1 {
        fill: url(#linear-gradient);
      }

      .cls-2 {
        opacity: 0.298;
      }

      .cls-3 {
        fill: #393e46;
      }

      .cls-4 {
        filter: url(#Path_6);
      }

      .cls-5 {
        filter: url(#Rectangle_43);
      }
    </style>
    <linearGradient id="linear-gradient" x2="1" y2="1" gradientUnits="objectBoundingBox">
      <stop offset="0" stop-color="#fffcb9"/>
      <stop offset="1" stop-color="#ffca1d"/>
    </linearGradient>
    <filter id="Rectangle_43" x="0" y="0" width="76" height="113" filterUnits="userSpaceOnUse">
      <feOffset dx="2" dy="5" input="SourceAlpha"/>
      <feGaussianBlur stdDeviation="1" result="blur"/>
      <feFlood flood-opacity="0.161"/>
      <feComposite operator="in" in2="blur"/>
      <feComposite in="SourceGraphic"/>
    </filter>
    <filter id="Path_6" x="5.5" y="5.5" width="15" height="14.341" filterUnits="userSpaceOnUse">
      <feOffset dy="1" input="SourceAlpha"/>
      <feGaussianBlur stdDeviation="0.5" result="blur-2"/>
      <feFlood flood-opacity="0.243"/>
      <feComposite operator="in" in2="blur-2"/>
      <feComposite in="SourceGraphic"/>
    </filter>
  </defs>
  <g id="Group_27" data-name="Group 27" transform="translate(-4 -52)">
    <g class="cls-5" transform="matrix(1, 0, 0, 1, 4, 52)">
      <rect id="Rectangle_43-2" data-name="Rectangle 43" class="cls-1" width="70" height="105" rx="6" transform="translate(1)"/>
    </g>
    <g id="Group_23" data-name="Group 23" class="cls-2" transform="translate(11 57.4)">
      <g class="cls-4" transform="matrix(1, 0, 0, 1, -7, -5.4)">
        <path id="Path_6-2" data-name="Path 6" class="cls-3" d="M12,9.212a.968.968,0,0,1-.235.424.659.659,0,0,1-.424.282,1.884,1.884,0,0,1-.659-.329A2.585,2.585,0,0,0,9.6,9.259a3.777,3.777,0,0,0-1.412.282,3.919,3.919,0,0,0,.188.659,3.67,3.67,0,0,1,.141,1.035c0,.471-.094.706-.329.706-.141,0-.282-.188-.329-.565a6.477,6.477,0,0,0-.282-1.318,1.51,1.51,0,0,0-1.6-1.224A1.611,1.611,0,0,0,4.706,9.4,2.409,2.409,0,0,0,4,11.188a.424.424,0,0,0,.047.235.364.364,0,0,1,.047.141c0,.094-.094.141-.329.235a.453.453,0,0,1-.329-.471,2.7,2.7,0,0,1,.047-.565,2.161,2.161,0,0,0,.047-.471.357.357,0,0,0-.094-.188c-.094-.047-.141-.141-.235-.188A1.991,1.991,0,0,0,1.835,9.4a1.735,1.735,0,0,0-.8.235,3.019,3.019,0,0,1-.518.235C.141,9.776,0,9.588,0,9.259a1.357,1.357,0,0,1,.282-.894.878.878,0,0,1,.753-.329,2.015,2.015,0,0,1,1.035.282,7.029,7.029,0,0,1,.894.706c.141.141.235.188.329.188.047,0,.047,0,.141-.047,0-.047,0-.047.047-.094a.164.164,0,0,1,.047-.094c0-.047-.094-.141-.282-.329a5.544,5.544,0,0,0-1.035-.988C1.365,7.235.941,7.047.894,7,.518,6.765.329,6.529.329,6.247c0-.235.141-.376.471-.376A3.907,3.907,0,0,1,3.012,7a2.432,2.432,0,0,0,.329.282,1.843,1.843,0,0,1,.376.471A5.133,5.133,0,0,0,4,8.271a2.028,2.028,0,0,0,.329.471.346.346,0,0,0,.094-.282,4.44,4.44,0,0,0-.753-1.365A7.275,7.275,0,0,0,2.541,5.824c-.424-.282-.8-.565-1.224-.847C.988,4.741.8,4.506.8,4.271a.626.626,0,0,1,.141-.376c.094-.094.188-.188.282-.188a2.228,2.228,0,0,1,1.129.565A11.988,11.988,0,0,1,4.047,6.012a5.28,5.28,0,0,1,.471.941,7.035,7.035,0,0,0,.706,1.224c0-.047.047-.094.047-.141V7.894a5.125,5.125,0,0,0-.8-2.165,4.3,4.3,0,0,1-.8-1.082c-.235-.282-.612-.706-1.176-1.271-.376-.376-.612-.659-.612-.847a.48.48,0,0,1,.235-.376.708.708,0,0,1,.518-.188c.329,0,.706.235,1.129.8A6.978,6.978,0,0,1,4.894,4.882a16.184,16.184,0,0,1,.518,1.788,4.7,4.7,0,0,0,.188.659.782.782,0,0,0,.047-.518,10.355,10.355,0,0,0-.282-2.353,4.732,4.732,0,0,0-.471-1.788c-.094-.188-.329-.518-.612-.941A1.888,1.888,0,0,1,4,1.118.125.125,0,0,1,4.141.976a1.12,1.12,0,0,1,.518.282,1.969,1.969,0,0,0,.706.424A.669.669,0,0,0,5.459,1.4V1.024c0-.282.188-.424.518-.424.235,0,.376.141.376.424a.512.512,0,0,1-.047.235,2.038,2.038,0,0,1-.047.235v.094a.046.046,0,0,0,.047.047c.047,0,.188-.141.424-.376S7.106.882,7.2.882a.173.173,0,0,1,.141.047A14.532,14.532,0,0,0,6.259,6.812a1.842,1.842,0,0,0,.141.612,23.387,23.387,0,0,0,.565-2.588,13.891,13.891,0,0,1,.847-2.447c.094-.188.188-.424.282-.612A.826.826,0,0,1,8.8,1.494c.282,0,.376.188.376.518,0,.047-.141.329-.376.847-.329.706-.612,1.318-.894,1.929A29.149,29.149,0,0,0,6.871,7.847a2.315,2.315,0,0,0,.565-.941,13.7,13.7,0,0,1,.612-1.318c.988-1.741,1.741-2.635,2.212-2.635a.48.48,0,0,1,.376.235.908.908,0,0,1,.141.471c0,.094-.141.282-.471.612-.376.376-.753.753-1.129,1.082A12.352,12.352,0,0,0,7.435,7.847l.047.188A12.589,12.589,0,0,1,9.694,5.965a2.98,2.98,0,0,1,1.412-.659.575.575,0,0,1,.424.188.486.486,0,0,1,.188.376.751.751,0,0,1-.141.376.741.741,0,0,1-.329.329,4.469,4.469,0,0,1-.847.329,4.887,4.887,0,0,1-.894.282A5.559,5.559,0,0,0,7.671,8.647l.047.188,1.271-.565a4.218,4.218,0,0,1,1.788-.376C11.624,7.894,12,8.318,12,9.212ZM6.965,11.376a.5.5,0,0,1-.565.565,5.793,5.793,0,0,1-1.271-.094q-.282-.141-.282-.706a2.619,2.619,0,0,1,.235-1.271c.141-.235.471-.329.988-.329a1.012,1.012,0,0,1,.612.282.828.828,0,0,1,.282.612v.235c0,.094-.047.141-.047.188a.828.828,0,0,0,.047.282Z" transform="translate(7 5.4)"/>
      </g>
    </g>
  </g>
</svg>
